<svg width="92" height="89" viewBox="0 0 92 89" fill="none" xmlns="http://www.w3.org/2000/svg">
<g clip-path="url(#clip0_269_220)">
<path fill-rule="evenodd" clip-rule="evenodd" d="M65.5795 60.1947V88.6549H72.6871V72.2183L84.1975 88.6549H92V60.1947H84.8925V77.3929L72.6097 60.1947H65.5795Z" fill="#00AFF0"/>
<path fill-rule="evenodd" clip-rule="evenodd" d="M11.8799 73.886H6.50013V66.2797H12.4109C16.3924 66.2797 16.7163 73.8901 11.8799 73.8901V73.886ZM-0.471588 88.6549H6.4991V79.9061H13.5457C25.3897 79.9061 25.812 60.1947 13.1674 60.1947H-0.471588V88.6549Z" fill="#00AFF0"/>
<path fill-rule="evenodd" clip-rule="evenodd" d="M33.6193 60.1947V88.6549H54.0739V82.6436H40.5634V60.1947H33.6193Z" fill="#00AFF0"/>
<path fill-rule="evenodd" clip-rule="evenodd" d="M23 47.6107H70.7442V0H23V47.6107Z" fill="#FFFF00"/>
<path fill-rule="evenodd" clip-rule="evenodd" d="M44.0886 19.8423L42.808 22.7989L50.2152 19.8242C49.9922 19.8242 48.1667 18.5734 45.4708 19.3052C44.7992 19.4868 44.4296 19.7377 44.0869 19.8441L44.0886 19.8423Z" fill="#FEF101"/>
<path fill-rule="evenodd" clip-rule="evenodd" d="M41.3832 27.9093C42.6344 28.1688 43.8813 27.4111 44.8114 27.0175C46.1233 26.4631 47.2304 26.5176 48.6829 26.7234L49.1306 24.5229L41.3832 27.9093Z" fill="#00AEEE"/>
<path d="M61.1556 20.4305C58.4659 18.8078 56.0937 19.2861 54.5753 19.7446C53.2903 20.1312 52.1215 20.4833 50.6309 20.12L50.5337 20.0932C48.932 19.5742 47.8109 19.3242 46.7159 19.3424C45.6209 19.3605 44.4123 19.6546 42.6639 20.2273L42.3741 20.2861C40.8531 20.4392 39.6514 19.8017 38.3351 19.4859C36.6649 19.0846 34.1764 19.2835 32.573 20.3734V17.2689C35.176 15.4983 36.5642 15.7561 38.8375 16.301C39.6835 16.5034 40.9199 16.8728 41.9039 16.9662C43.5385 17.121 44.9537 15.7941 46.676 15.7656C48.1164 15.7422 49.4708 16.3036 51.3285 16.9013C52.0703 17.0631 52.8903 16.8148 53.7857 16.5467C55.7813 15.9412 57.5288 15.1627 61.1852 16.9402L61.1556 20.4305Z" fill="#00AFF0"/>
<path d="M61.1556 28.0382C58.4659 26.4155 56.0937 26.8947 54.5753 27.3523C53.2902 27.7398 52.1215 28.0919 50.6308 27.7286L50.5302 27.7017C48.9285 27.1827 47.8075 26.9319 46.7125 26.9501C45.6175 26.9682 44.4088 27.2623 42.6605 27.8358L42.3707 27.8946C40.8496 28.0469 39.6479 27.4094 38.3317 27.0936C36.6614 26.6931 34.1729 26.8912 32.5695 27.982V24.8766C35.1725 23.106 36.5608 23.3646 38.834 23.9087C39.68 24.1111 40.9164 24.4813 41.9004 24.5748C43.5351 24.7287 44.9502 23.4018 46.6725 23.3733C48.1129 23.3499 49.4673 23.9113 51.325 24.509C52.0668 24.6716 52.8868 24.4225 53.7822 24.1544C55.7778 23.5489 57.5253 22.7704 61.1817 24.5479L61.1556 28.0382Z" fill="#00AFF0"/>
<path d="M61.1557 35.6425C58.4659 34.0197 56.0937 34.4989 54.5753 34.9565C53.2903 35.3441 52.1215 35.6961 50.6309 35.3328L50.5337 35.306C48.932 34.787 47.8109 34.537 46.7159 34.5543C45.6209 34.5716 44.4123 34.8666 42.6639 35.4401L42.3741 35.4989C40.8531 35.6511 39.6514 35.0136 38.3351 34.6979C36.6649 34.2974 34.1764 34.4955 32.573 35.5863V32.4809C35.1725 30.712 36.5608 30.9715 38.8306 31.5164C39.6766 31.7197 40.913 32.089 41.8969 32.1825C43.5316 32.3373 44.9468 31.0095 46.6691 30.9818C48.1094 30.9576 49.4638 31.519 51.3215 32.1167C52.0634 32.2793 52.8833 32.0302 53.7787 31.7621C55.7744 31.1566 57.5219 30.3781 61.1782 32.1565L61.1557 35.6425Z" fill="#00AFF0"/>
<path fill-rule="evenodd" clip-rule="evenodd" d="M40.4869 16.8243L39.5481 19.8025L38.3716 23.5644L37.4284 26.56L36.31 30.1065L41.3858 27.9163L49.1332 24.5298L48.6855 26.7304L47.8404 30.9922L47.2226 34.044L45.548 42.4855C46.145 41.1794 46.676 39.7279 47.2166 38.3768C47.4014 37.914 48.7723 34.3865 48.8851 34.2689C48.9085 34.0639 49.7961 31.8711 49.9419 31.5796L51.456 27.8246L52.6898 24.7279L54.5943 19.9306L55.4542 17.7222L50.2204 19.8242L42.808 22.7989L44.0869 19.8423L45.725 16.1021C45.7736 15.865 46.5927 14.052 46.7567 13.6653C47.0526 12.969 49.8013 6.71071 49.9011 6.35779H43.8561C43.7043 6.45899 43.6617 6.80673 43.6053 6.98232L40.4869 16.8243Z" fill="#FF0000"/>
</g>
<defs>
<clipPath id="clip0_269_220">
<rect width="92" height="89" fill="white"/>
</clipPath>
</defs>
</svg>
