<svg width="20" height="20" viewBox="0 0 20 20" fill="none" xmlns="http://www.w3.org/2000/svg">
<g clip-path="url(#clip0_300_849)">
<path d="M9.16666 9.99999C9.16666 10.221 9.25445 10.433 9.41073 10.5892C9.56701 10.7455 9.77898 10.8333 9.99999 10.8333C10.221 10.8333 10.433 10.7455 10.5892 10.5892C10.7455 10.433 10.8333 10.221 10.8333 9.99999C10.8333 9.77898 10.7455 9.56701 10.5892 9.41073C10.433 9.25445 10.221 9.16666 9.99999 9.16666C9.77898 9.16666 9.56701 9.25445 9.41073 9.41073C9.25445 9.56701 9.16666 9.77898 9.16666 9.99999Z" fill="#8F95B2" stroke="#8F95B2" stroke-width="1.5" stroke-linecap="round" stroke-linejoin="round"/>
<path d="M9.16666 15.8333C9.16666 16.0543 9.25445 16.2663 9.41073 16.4226C9.56701 16.5789 9.77898 16.6667 9.99999 16.6667C10.221 16.6667 10.433 16.5789 10.5892 16.4226C10.7455 16.2663 10.8333 16.0543 10.8333 15.8333C10.8333 15.6123 10.7455 15.4004 10.5892 15.2441C10.433 15.0878 10.221 15 9.99999 15C9.77898 15 9.56701 15.0878 9.41073 15.2441C9.25445 15.4004 9.16666 15.6123 9.16666 15.8333Z" fill="#8F95B2" stroke="#8F95B2" stroke-width="1.5" stroke-linecap="round" stroke-linejoin="round"/>
<path d="M9.16666 4.16668C9.16666 4.38769 9.25445 4.59965 9.41073 4.75593C9.56701 4.91221 9.77898 5.00001 9.99999 5.00001C10.221 5.00001 10.433 4.91221 10.5892 4.75593C10.7455 4.59965 10.8333 4.38769 10.8333 4.16668C10.8333 3.94566 10.7455 3.7337 10.5892 3.57742C10.433 3.42114 10.221 3.33334 9.99999 3.33334C9.77898 3.33334 9.56701 3.42114 9.41073 3.57742C9.25445 3.7337 9.16666 3.94566 9.16666 4.16668Z" fill="#8F95B2" stroke="#8F95B2" stroke-width="1.5" stroke-linecap="round" stroke-linejoin="round"/>
</g>
<defs>
<clipPath id="clip0_300_849">
<rect width="20" height="20" fill="white"/>
</clipPath>
</defs>
</svg>
