<svg width="40" height="40" viewBox="0 0 40 40" fill="none" xmlns="http://www.w3.org/2000/svg">
<g clip-path="url(#clip0_545_3935)">
<path d="M35 5L24.1667 35C24.0935 35.1596 23.9761 35.2948 23.8284 35.3896C23.6807 35.4844 23.5089 35.5348 23.3333 35.5348C23.1578 35.5348 22.986 35.4844 22.8382 35.3896C22.6905 35.2948 22.5731 35.1596 22.5 35L16.6667 23.3333L5 17.5C4.84043 17.4269 4.70521 17.3095 4.61041 17.1618C4.5156 17.014 4.46521 16.8422 4.46521 16.6667C4.46521 16.4911 4.5156 16.3193 4.61041 16.1716C4.70521 16.0239 4.84043 15.9065 5 15.8333L35 5Z" fill="#00A2B9"/>
</g>
<defs>
<clipPath id="clip0_545_3935">
<rect width="40" height="40" fill="white"/>
</clipPath>
</defs>
</svg>
